<svg version="1.1" id="Layer_1" xmlns="http://www.w3.org/2000/svg" xmlns:xlink="http://www.w3.org/1999/xlink" x="0px" y="0px"
	 width="100%" viewBox="0 0 1623 382" enable-background="new 0 0 1623 382" xml:space="preserve">
<path fill="#FFFFFF" opacity="1.000000" stroke="none" 
	d="
M1624.000000,60.000019 
	C1624.000000,167.666672 1624.000000,275.333344 1624.000000,383.000000 
	C1615.583008,383.000000 1607.260132,383.000000 1598.468506,382.608643 
	C1595.506104,376.160156 1593.015015,370.101990 1590.518066,364.046204 
	C1577.889404,333.419769 1565.252197,302.796844 1552.638672,272.164124 
	C1551.075684,268.368256 1549.046143,265.538391 1544.787476,267.149536 
	C1540.108887,277.550903 1535.464233,287.569458 1531.075073,297.698792 
	C1521.784058,319.141510 1512.589722,340.626495 1503.434814,362.127808 
	C1500.495483,369.030823 1497.804565,376.039612 1495.000000,383.000000 
	C1488.645630,383.000000 1482.291138,383.000000 1475.468384,382.531342 
	C1475.000000,343.829895 1475.000000,305.597107 1475.000000,267.009338 
	C1473.428101,267.137909 1472.258057,267.233582 1471.000000,267.336487 
	C1471.000000,306.149323 1471.000000,344.574677 1471.000000,383.000000 
	C1463.645752,383.000000 1456.291504,383.000000 1448.468628,382.549744 
	C1448.000000,380.829224 1448.000000,379.558990 1448.000000,377.928650 
	C1425.844849,377.928650 1404.097412,377.928650 1382.211792,377.928650 
	C1382.211792,360.163727 1382.211792,342.766510 1382.211792,324.992920 
	C1402.164185,324.992920 1421.909180,324.992920 1441.999390,324.992920 
	C1441.861572,323.414978 1441.759155,322.243561 1441.624268,320.700012 
	C1421.531006,320.700012 1401.802979,320.700012 1382.347534,320.700012 
	C1382.347534,303.890167 1382.347534,287.490021 1382.347534,270.891235 
	C1403.647827,270.891235 1424.601196,270.891235 1445.962769,270.891235 
	C1445.881348,269.492371 1445.813354,268.323181 1445.754395,267.310669 
	C1422.958008,267.310669 1400.562988,267.310669 1378.000000,267.310669 
	C1378.000000,306.080719 1378.000000,344.540375 1378.000000,383.000000 
	C1349.645752,383.000000 1321.291504,383.000000 1292.468628,382.531342 
	C1292.000000,363.466766 1292.000000,344.870819 1292.000000,326.000000 
	C1300.477173,326.000000 1308.446167,326.123108 1316.409180,325.957184 
	C1321.811401,325.844635 1327.313721,325.889130 1332.580078,324.872192 
	C1343.528076,322.757965 1353.728882,312.858459 1354.852905,302.718842 
	C1356.158936,290.937317 1355.000122,279.365906 1343.103394,272.850677 
	C1338.457886,270.306610 1332.898682,268.429657 1327.659668,268.167633 
	C1314.532104,267.511078 1301.349731,267.950836 1288.000000,267.950836 
	C1288.000000,306.072998 1288.000000,344.536499 1288.000000,383.000000 
	C1281.645630,383.000000 1275.291138,383.000000 1268.468384,382.608612 
	C1265.000000,374.811707 1262.030518,367.393677 1258.993896,360.003204 
	C1252.609741,344.465637 1246.220581,328.929932 1239.776245,313.417236 
	C1234.004883,299.524200 1228.240967,285.626465 1222.244019,271.830627 
	C1221.416260,269.926239 1219.372437,267.496033 1217.696899,267.335114 
	C1216.253540,267.196442 1213.923462,269.651428 1213.039795,271.471527 
	C1209.193237,279.395081 1205.664062,287.476044 1202.143921,295.554077 
	C1193.447266,315.511292 1184.754272,335.470581 1176.192749,355.485870 
	C1172.299561,364.587860 1168.721191,373.824463 1165.000000,383.000000 
	C1159.977905,383.000000 1154.955811,383.000000 1149.465332,382.630798 
	C1137.698608,363.375183 1126.400269,344.488739 1114.777710,325.060394 
	C1117.063599,324.650299 1118.869385,324.280182 1120.689697,324.007599 
	C1129.563477,322.678864 1137.331665,319.460327 1142.744019,311.794861 
	C1147.976562,304.383942 1147.567749,296.196655 1146.384155,287.869049 
	C1145.628662,282.553497 1142.776001,278.434601 1138.803589,274.973907 
	C1131.655762,268.747009 1122.970459,267.189514 1113.948120,267.045105 
	C1102.361206,266.859680 1090.769165,267.000000 1079.000000,267.000000 
	C1079.000000,306.068878 1079.000000,344.534454 1079.000000,383.000000 
	C1071.645752,383.000000 1064.291504,383.000000 1056.468628,382.549744 
	C1056.000000,380.829224 1056.000000,379.558990 1056.000000,377.928711 
	C1033.844849,377.928711 1012.097473,377.928711 990.211731,377.928711 
	C990.211731,360.163879 990.211731,342.766693 990.211731,324.993103 
	C1010.163940,324.993103 1029.908936,324.993103 1049.999268,324.993103 
	C1049.861572,323.415253 1049.759399,322.243835 1049.624756,320.700317 
	C1029.531250,320.700317 1009.803406,320.700317 990.347290,320.700317 
	C990.347290,303.890564 990.347290,287.490448 990.347290,270.891479 
	C1011.314209,270.891479 1031.934204,270.891479 1052.962769,270.891479 
	C1052.881348,269.492218 1052.813477,268.323242 1052.754517,267.310791 
	C1030.291382,267.310791 1008.229614,267.310791 986.000000,267.310791 
	C986.000000,306.080872 986.000000,344.540436 986.000000,383.000000 
	C975.312439,383.000000 964.624878,383.000000 953.468628,382.531342 
	C953.000000,343.809692 953.000000,305.556671 953.000000,267.203064 
	C951.161560,267.203064 949.759338,267.203064 947.980347,267.203064 
	C947.980347,285.136780 947.980347,302.873718 947.980347,320.645477 
	C922.426880,320.645477 897.254211,320.645477 871.881714,320.645477 
	C871.881714,302.673706 871.881714,285.055908 871.881714,267.037079 
	C870.486633,267.120911 869.317810,267.191193 868.000000,267.270386 
	C868.000000,306.101105 868.000000,344.550537 868.000000,383.000000 
	C848.645752,383.000000 829.291565,383.000000 809.468628,382.531342 
	C809.000000,345.154724 809.000000,308.246765 809.000000,270.966858 
	C822.194214,270.966858 834.941895,270.966858 848.020325,270.966858 
	C847.865112,269.389069 847.749817,268.216888 847.646790,267.169189 
	C819.955383,267.169189 792.684937,267.169189 765.036438,267.169189 
	C765.128540,268.533081 765.207520,269.702362 765.311890,271.247528 
	C778.405457,271.247528 791.137756,271.247528 804.000000,271.247528 
	C804.000000,308.766754 804.000000,345.883362 804.000000,383.000000 
	C536.437927,383.000000 268.875885,383.000000 1.000000,383.000000 
	C1.000000,277.645966 1.000000,172.291641 1.333174,66.540283 
	C14.642170,77.077332 27.539356,88.107086 40.647537,98.880104 
	C44.044094,101.671577 47.820915,104.651070 51.913841,105.808083 
	C60.249218,108.164375 69.193459,108.509712 77.377007,111.221901 
	C86.421547,114.219444 92.227997,111.154274 97.274361,104.261688 
	C97.953194,103.334518 99.132202,102.736259 99.685257,101.761864 
	C100.921944,99.583015 102.731598,97.310822 102.866600,94.992706 
	C103.786659,79.195274 104.309837,63.375034 105.027847,47.565186 
	C105.123108,45.467579 105.861832,43.384823 105.843811,41.299152 
	C105.790703,35.155437 106.989449,28.991455 103.686775,23.034588 
	C99.734459,15.905986 96.528946,8.363331 93.000000,1.000001 
	C603.333313,1.000000 1113.666626,1.000000 1624.000000,1.000000 
	C1624.000000,19.406160 1624.000000,37.734421 1623.531372,56.531342 
	C1611.902222,57.000004 1600.739990,56.907566 1589.582886,57.105061 
	C1588.007202,57.132954 1585.770142,58.160156 1585.003540,59.428535 
	C1579.184082,69.057495 1573.656982,78.863220 1568.033325,88.610657 
	C1565.193237,93.533096 1562.341797,98.448997 1559.069702,104.103539 
	C1556.001831,98.679077 1553.541138,94.213356 1550.973022,89.810303 
	C1545.059937,79.672356 1539.131958,69.542435 1533.095093,59.478283 
	C1532.458862,58.417484 1531.066040,57.121449 1530.008789,57.107559 
	C1517.484497,56.942974 1504.957397,57.001621 1491.969604,57.001621 
	C1508.444702,82.105789 1524.543091,106.561775 1540.496216,131.112198 
	C1541.561401,132.751511 1541.917725,135.103516 1541.936279,137.130173 
	C1542.058960,150.621796 1542.000000,164.115051 1542.000000,177.607788 
	C1542.000000,181.030792 1542.000000,184.453796 1542.000000,187.676483 
	C1553.056152,187.676483 1563.460083,187.676483 1574.000000,187.676483 
	C1574.000000,170.707855 1573.908569,154.061264 1574.101685,137.417969 
	C1574.129639,135.006256 1575.033569,132.293243 1576.358154,130.256927 
	C1587.859375,112.575523 1599.474487,94.966751 1611.224487,77.449524 
	C1615.236694,71.467834 1619.727783,65.807289 1624.000000,60.000019 
M298.452759,301.038361 
	C297.582367,302.577118 296.705811,304.112366 295.842590,305.655121 
	C288.817200,318.210846 279.005341,329.203094 274.894379,343.407318 
	C273.742004,347.388977 271.920990,351.175446 270.438965,355.063751 
	C267.143127,363.710785 264.276276,372.421875 266.679901,382.307892 
	C267.547302,381.663239 268.247711,381.287323 268.763397,380.738007 
	C278.599884,370.260071 288.086304,359.427826 298.324768,349.360046 
	C308.884857,338.976044 319.901978,329.011658 331.217987,319.454285 
	C342.506561,309.920105 354.057434,300.609467 366.152466,292.142426 
	C377.597321,284.130524 389.912170,277.364075 401.813843,270.000488 
	C405.564484,267.679932 409.174255,265.438049 413.979309,265.939880 
	C422.893951,266.870819 431.846161,267.441925 440.901611,268.172485 
	C441.614380,281.013733 441.931946,293.532715 443.127106,305.967346 
	C443.976227,314.801880 443.319366,323.926361 449.789337,331.774414 
	C455.444702,338.634430 459.568573,346.756989 464.369049,354.321777 
	C464.855469,354.274963 465.341888,354.228149 465.828308,354.181335 
	C466.218872,352.646484 466.796356,351.132202 466.967682,349.573273 
	C467.717407,342.750946 467.872009,335.827667 469.111511,329.101196 
	C473.207489,306.873138 477.689392,284.716278 481.996826,262.526978 
	C482.615936,259.337646 484.000366,257.214081 487.427063,256.126892 
	C508.210480,249.532806 528.974365,242.868698 549.643188,235.925598 
	C558.393066,232.986313 567.438843,230.260712 575.369324,225.723618 
	C584.576416,220.456131 592.842651,213.481384 601.271545,206.931427 
	C613.382385,197.520325 625.722351,188.324112 637.096436,178.073029 
	C644.712463,171.208878 650.886169,162.728027 657.591187,154.873260 
	C666.609985,144.307922 675.573792,133.694473 684.457764,123.015656 
	C691.805237,114.183876 700.176697,106.135826 704.565491,95.080002 
	C706.629883,89.879509 709.831848,85.139824 712.286804,80.079048 
	C712.952759,78.706177 713.131958,76.875259 712.918945,75.340004 
	C712.304138,70.909172 711.375488,66.521896 710.531738,61.908043 
	C684.904297,73.827736 659.457153,85.666191 634.007263,97.498688 
	C627.894836,100.340523 621.813782,103.254860 615.645813,105.971260 
	C607.009583,109.774719 598.888855,113.405273 593.618896,122.524780 
	C582.753662,141.327011 570.705566,159.450958 558.927979,177.714584 
	C557.319092,180.209564 554.811890,182.775772 552.138672,183.821457 
	C540.513000,188.369095 528.674011,192.371750 516.908875,196.562271 
	C481.147400,209.299896 445.482788,222.319061 409.589966,234.675156 
	C381.852051,244.223923 353.806305,252.876450 325.969116,262.142883 
	C323.697632,262.899048 321.434998,264.962860 320.094940,267.022095 
	C312.898590,278.080688 305.995819,289.330383 298.452759,301.038361 
M360.239288,148.196564 
	C350.356445,157.107498 340.429291,165.969879 330.601837,174.941513 
	C317.944489,186.496628 305.394867,198.169754 292.740295,209.727982 
	C288.147583,213.922821 283.315216,217.855103 278.717926,222.045166 
	C270.745056,229.311752 262.870117,236.685822 254.156799,244.752991 
	C262.973602,246.260025 270.985168,247.650848 279.004578,248.994583 
	C288.423737,250.572845 297.825470,252.285568 307.282501,253.595184 
	C312.412994,254.305634 318.149384,255.858521 322.745819,254.364716 
	C353.668610,244.314865 384.341339,233.497986 415.129517,223.030899 
	C445.763367,212.616257 476.440674,202.329590 507.092590,191.968002 
	C521.038208,187.253815 534.968506,182.494293 549.045837,177.707718 
	C546.660767,168.637360 544.347351,159.824677 542.024902,151.014359 
	C541.006592,147.151367 541.127625,141.641983 538.623657,139.886581 
	C535.998596,138.046356 530.847412,139.815018 526.799805,139.997726 
	C511.971771,140.667099 497.142151,141.304245 482.315765,142.008545 
	C469.151184,142.633926 455.991455,143.361313 442.827057,143.990738 
	C428.167053,144.691666 413.507355,145.415207 398.841614,145.974335 
	C386.768860,146.434616 374.687195,146.660172 362.610748,147.030624 
	C362.026428,147.048553 361.454193,147.460571 360.239288,148.196564 
M819.507202,189.003250 
	C832.964600,192.985550 846.545715,193.032196 860.142090,189.973816 
	C880.623535,185.366669 896.171143,174.124405 905.972168,155.327087 
	C914.377625,139.206116 914.712952,121.961342 911.686584,104.751648 
	C909.664246,93.251549 904.123169,82.930542 895.835815,74.265388 
	C887.200378,65.236412 876.834839,59.288029 864.892334,56.046074 
	C849.305725,51.814865 833.568909,51.598919 818.070984,56.099358 
	C796.018066,62.503319 780.484619,76.289085 773.284607,98.449615 
	C769.495422,110.112244 769.168884,122.082031 770.863708,134.284515 
	C772.386230,145.246582 776.201721,155.115067 782.554504,164.010345 
	C791.567139,176.629852 803.868958,184.651947 819.507202,189.003250 
M967.500000,57.000000 
	C955.409912,57.000000 943.319763,57.000000 931.241699,57.000000 
	C931.241699,100.934166 931.241699,144.312454 931.241699,188.000000 
	C950.430786,188.000000 969.383850,188.220337 988.326233,187.866745 
	C994.067139,187.759583 999.823853,186.276215 1005.494019,185.054749 
	C1018.225952,182.312088 1029.345215,176.295700 1037.824463,166.446838 
	C1042.591431,160.910004 1046.881348,154.595306 1049.835571,147.942459 
	C1055.724487,134.681030 1055.401489,120.672462 1053.095947,106.470390 
	C1049.102905,81.872650 1031.067261,66.097595 1008.178284,59.954563 
	C995.097107,56.443787 981.793945,57.048862 967.500000,57.000000 
M1428.000000,139.599579 
	C1428.000000,137.825699 1428.000000,136.051834 1428.000000,133.889343 
	C1446.242432,133.889343 1463.982422,133.889343 1481.743164,133.889343 
	C1481.743164,125.084869 1481.743164,116.680771 1481.743164,107.882355 
	C1463.750610,107.882355 1446.010620,107.882355 1428.260498,107.882355 
	C1428.260498,99.744118 1428.260498,92.006630 1428.260498,83.875282 
	C1447.256714,83.875282 1465.996338,83.875282 1484.736328,83.875282 
	C1484.736328,74.737541 1484.736328,65.999298 1484.736328,57.262138 
	C1455.070557,57.262138 1425.669189,57.262138 1396.257812,57.262138 
	C1396.257812,100.924179 1396.257812,144.323578 1396.257812,187.744049 
	C1427.250732,187.744049 1457.985229,187.744049 1488.741455,187.744049 
	C1488.741455,178.414764 1488.741455,169.343414 1488.741455,159.879395 
	C1468.413940,159.879395 1448.341553,159.879395 1428.000000,159.879395 
	C1428.000000,153.182846 1428.000000,146.879593 1428.000000,139.599579 
M456.261597,113.964691 
	C452.693634,114.910789 449.118164,115.829414 445.559021,116.807625 
	C427.149628,121.867325 408.730957,126.894035 390.343658,132.032822 
	C381.517853,134.499405 372.754059,137.187912 363.962189,139.775925 
	C364.028259,140.191116 364.094360,140.606308 364.160461,141.021500 
	C366.882111,140.681015 369.594696,140.195236 372.326935,140.025269 
	C383.989471,139.299713 395.656982,138.652954 407.324188,138.005142 
	C419.655762,137.320389 431.989471,136.673798 444.321564,135.998138 
	C456.321411,135.340668 468.316650,134.587738 480.320740,134.020935 
	C496.147858,133.273636 511.987366,132.774826 527.808899,131.931519 
	C532.304138,131.691940 537.474670,131.851654 541.101318,129.724274 
	C556.218933,120.856316 570.867615,111.188728 585.685059,101.809296 
	C594.593079,96.170525 603.495117,90.522278 613.605835,84.113922 
	C609.894226,92.372360 606.749146,99.370094 603.604126,106.367821 
	C603.933716,106.635574 604.263306,106.903328 604.592896,107.171082 
	C639.390320,90.826065 674.187805,74.481056 708.985229,58.136047 
	C708.802795,57.630306 708.620422,57.124565 708.437988,56.618824 
	C703.879639,57.079189 699.330505,57.685696 694.761230,57.971527 
	C682.767090,58.721806 670.765015,59.346817 658.764648,59.995258 
	C640.016846,61.008297 621.276306,62.399818 602.515015,62.796070 
	C595.359314,62.947208 589.108276,64.393433 583.088501,67.961342 
	C579.080261,70.337051 574.947144,72.513718 570.794922,74.632553 
	C560.663452,79.802513 550.947632,86.340691 540.241394,89.722054 
	C512.726318,98.412155 484.764343,105.687080 456.261597,113.964691 
M1267.507080,75.995201 
	C1269.635864,74.205040 1271.764771,72.414879 1274.125244,70.429977 
	C1261.413208,58.725983 1247.159058,54.138302 1231.720703,53.120235 
	C1222.117920,52.486988 1212.771973,54.516941 1203.646118,57.920811 
	C1183.365356,65.485420 1174.005249,86.097153 1179.819092,106.397881 
	C1183.785400,120.247757 1194.543945,126.358170 1206.772461,131.014633 
	C1215.283203,134.255463 1223.894531,137.268555 1232.241943,140.888504 
	C1237.102173,142.996216 1239.691895,147.347137 1238.901855,152.753525 
	C1238.026733,158.742584 1234.279541,162.492508 1228.307495,163.889481 
	C1221.122192,165.570282 1214.161377,164.984207 1207.755615,161.232071 
	C1202.514282,158.161987 1197.509399,154.688385 1192.180176,151.252060 
	C1186.256104,157.203186 1180.079346,163.502029 1173.780884,169.676727 
	C1171.932129,171.489212 1171.054810,173.091263 1173.461060,174.950500 
	C1175.888428,176.826019 1178.317505,178.720734 1180.891724,180.380905 
	C1190.679688,186.693497 1201.399414,189.768951 1213.014893,191.237457 
	C1227.989014,193.130569 1241.793335,190.657135 1254.370361,182.793945 
	C1268.795288,173.775375 1274.500000,155.828400 1271.046509,139.748901 
	C1267.748291,124.391869 1256.439087,117.244675 1243.198486,112.005379 
	C1234.726318,108.652916 1226.111084,105.650856 1217.711670,102.130157 
	C1213.836914,100.506065 1210.666504,97.581779 1211.070557,92.829842 
	C1211.442139,88.458916 1213.369141,84.875648 1217.649048,82.801651 
	C1228.055420,77.758865 1238.671997,80.143509 1249.203125,88.940498 
	C1252.302734,91.529793 1253.774658,91.086342 1256.010986,88.541618 
	C1259.598511,84.459351 1263.331177,80.504639 1267.507080,75.995201 
M1286.024658,179.538254 
	C1288.491455,181.041183 1290.839233,182.801163 1293.443970,184.005859 
	C1312.088989,192.629044 1331.478271,195.148621 1350.889160,187.816605 
	C1373.414917,179.307983 1381.365601,161.138428 1377.046509,138.589005 
	C1374.417969,124.866516 1364.275513,117.857216 1352.293945,113.034340 
	C1342.804688,109.214615 1333.205322,105.657616 1323.582764,102.183670 
	C1317.199951,99.879326 1315.984741,90.018349 1320.195190,85.648132 
	C1324.725220,80.946419 1330.991333,79.378380 1337.109619,80.222305 
	C1344.296997,81.213676 1351.101440,83.911018 1356.313599,89.608002 
	C1357.012817,90.372375 1359.907959,90.398239 1360.661011,89.643463 
	C1367.038208,83.251831 1373.154175,76.599464 1379.358154,70.015190 
	C1373.582275,63.166588 1366.036865,59.950191 1358.531006,57.118484 
	C1345.263306,52.112980 1331.382568,51.599796 1317.801636,55.260864 
	C1307.707153,57.982143 1298.228394,62.383533 1291.756592,71.598389 
	C1286.439819,79.168404 1284.873535,87.301773 1284.866577,96.364281 
	C1284.855591,110.723236 1291.656494,120.812675 1303.874512,126.784592 
	C1314.029175,131.747986 1325.154663,134.685226 1335.591187,139.128052 
	C1341.498779,141.642838 1345.739990,145.216309 1345.074951,152.330383 
	C1344.615967,157.239655 1341.409546,161.976074 1335.814331,163.619095 
	C1330.486084,165.183731 1324.897217,165.729034 1319.698975,163.186646 
	C1312.430176,159.631561 1305.335571,155.720306 1297.577637,151.652649 
	C1291.600098,158.038879 1284.832153,165.269653 1277.833862,172.746521 
	C1280.444092,174.875473 1282.977661,176.941971 1286.024658,179.538254 
M273.004333,161.492599 
	C270.556671,161.699722 268.097656,161.818176 265.663330,162.129501 
	C255.827820,163.387344 245.983292,164.591736 236.174454,166.035812 
	C228.353394,167.187241 220.519928,168.386841 212.804565,170.078598 
	C207.347458,171.275177 202.066284,173.291840 196.727951,175.008865 
	C183.203781,179.358826 169.691650,183.746216 155.016174,188.493378 
	C184.998611,206.028595 214.074509,223.033646 243.196350,240.065567 
	C274.589874,211.688065 305.934662,183.354630 337.279449,155.021179 
	C337.089752,154.617188 336.900055,154.213196 336.710358,153.809204 
	C326.397217,154.889160 316.074585,155.886948 305.773529,157.071777 
	C295.105316,158.298874 284.457947,159.707397 273.004333,161.492599 
M1088.530396,121.026207 
	C1095.940186,129.364395 1097.037842,139.331360 1096.019897,149.865784 
	C1095.876343,151.351868 1096.000000,152.863770 1096.000000,154.363724 
	C1096.000000,165.473846 1096.000000,176.583984 1096.000000,187.755524 
	C1107.220825,187.755524 1117.959473,187.755524 1129.000000,187.755524 
	C1129.000000,170.546860 1128.931641,153.580338 1129.080688,136.615692 
	C1129.100952,134.312790 1129.661377,131.656433 1130.901733,129.777649 
	C1143.693115,110.402367 1156.697754,91.168106 1169.589600,71.858818 
	C1172.662231,67.256683 1175.536011,62.521732 1178.902588,57.215172 
	C1165.358521,57.215172 1152.919434,57.215172 1140.620239,57.215172 
	C1131.642944,72.826515 1122.680908,88.411224 1113.639526,104.134125 
	C1104.483887,88.274422 1095.492554,72.699188 1086.472778,57.074768 
	C1073.483521,57.074768 1060.510132,57.074768 1046.630981,57.074768 
	C1060.615601,78.515320 1074.308228,99.508240 1088.530396,121.026207 
M121.362686,112.033234 
	C118.408867,110.412552 115.448448,108.803757 112.503006,107.167992 
	C109.244209,105.358192 106.407112,105.409935 103.849693,108.564331 
	C102.289360,110.488899 100.496254,112.315842 98.512405,113.788979 
	C92.399803,118.327942 92.625259,117.629272 97.066017,123.415909 
	C111.405190,142.100906 126.032738,160.565094 140.619965,179.058533 
	C142.207031,181.070618 143.697021,182.453049 147.186279,181.175705 
	C166.599838,174.068909 186.198410,167.467484 206.569107,160.403442 
	C177.861893,144.137650 149.922256,128.306778 121.362686,112.033234 
M561.478333,127.012344 
	C557.469238,130.015839 553.389954,132.933044 549.506226,136.090775 
	C548.662170,136.777023 547.875488,138.516464 548.152161,139.446686 
	C550.966187,148.907486 554.006104,158.301086 556.988892,167.733139 
	C561.623840,165.686020 603.900818,99.095276 603.155884,94.366684 
	C589.262085,105.214539 575.630981,115.857323 561.478333,127.012344 
z"/>
<path fill="#000000" opacity="1.000000" stroke="none" 
	d="
M1624.000000,59.625019 
	C1619.727783,65.807289 1615.236694,71.467834 1611.224487,77.449524 
	C1599.474487,94.966751 1587.859375,112.575523 1576.358154,130.256927 
	C1575.033569,132.293243 1574.129639,135.006256 1574.101685,137.417969 
	C1573.908569,154.061264 1574.000000,170.707855 1574.000000,187.676483 
	C1563.460083,187.676483 1553.056152,187.676483 1542.000000,187.676483 
	C1542.000000,184.453796 1542.000000,181.030792 1542.000000,177.607788 
	C1542.000000,164.115051 1542.058960,150.621796 1541.936279,137.130173 
	C1541.917725,135.103516 1541.561401,132.751511 1540.496216,131.112198 
	C1524.543091,106.561775 1508.444702,82.105789 1491.969604,57.001621 
	C1504.957397,57.001621 1517.484497,56.942974 1530.008789,57.107559 
	C1531.066040,57.121449 1532.458862,58.417484 1533.095093,59.478283 
	C1539.131958,69.542435 1545.059937,79.672356 1550.973022,89.810303 
	C1553.541138,94.213356 1556.001831,98.679077 1559.069702,104.103539 
	C1562.341797,98.448997 1565.193237,93.533096 1568.033325,88.610657 
	C1573.656982,78.863220 1579.184082,69.057495 1585.003540,59.428535 
	C1585.770142,58.160156 1588.007202,57.132954 1589.582886,57.105061 
	C1600.739990,56.907566 1611.902222,57.000004 1623.531372,57.000000 
	C1624.000000,57.750000 1624.000000,58.500000 1624.000000,59.625019 
z"/>
<path fill="#FFFFFF" opacity="1.000000" stroke="none" 
	d="
M1.000000,65.000000 
	C1.000000,43.727440 1.000000,22.454880 1.000000,1.000000 
	C30.687313,1.000000 60.374996,1.000000 90.531242,1.394337 
	C90.988396,2.288330 91.116463,2.842512 90.945518,3.279802 
	C83.307693,22.817595 75.597443,42.327290 68.037987,61.895252 
	C67.036545,64.487534 65.626236,65.083527 62.985821,65.067871 
	C42.324474,64.945312 21.662075,65.000000 1.000000,65.000000 
z"/>
<path fill="#000000" opacity="1.000000" stroke="none" 
	d="
M1.000000,65.250000 
	C21.662075,65.000000 42.324474,64.945312 62.985821,65.067871 
	C65.626236,65.083527 67.036545,64.487534 68.037987,61.895252 
	C75.597443,42.327290 83.307693,22.817595 90.945518,3.279802 
	C91.116463,2.842512 90.988396,2.288330 90.999901,1.394337 
	C91.444443,1.000000 91.888893,1.000000 92.666664,1.000001 
	C96.528946,8.363331 99.734459,15.905986 103.686775,23.034588 
	C106.989449,28.991455 105.790703,35.155437 105.843811,41.299152 
	C105.861832,43.384823 105.123108,45.467579 105.027847,47.565186 
	C104.309837,63.375034 103.786659,79.195274 102.866600,94.992706 
	C102.731598,97.310822 100.921944,99.583015 99.685257,101.761864 
	C99.132202,102.736259 97.953194,103.334518 97.274361,104.261688 
	C92.227997,111.154274 86.421547,114.219444 77.377007,111.221901 
	C69.193459,108.509712 60.249218,108.164375 51.913841,105.808083 
	C47.820915,104.651070 44.044094,101.671577 40.647537,98.880104 
	C27.539356,88.107086 14.642170,77.077332 1.333174,66.071625 
	C1.000000,66.000000 1.000000,65.500000 1.000000,65.250000 
z"/>
<path fill="#FFFFFF" opacity="1.000000" stroke="none" 
	d="
M948.000000,383.000000 
	C922.979126,383.000000 897.958191,383.000000 872.468628,382.531342 
	C872.000000,363.159912 872.000000,344.257141 872.000000,325.333893 
	C897.583862,325.333893 922.730469,325.333893 948.000000,325.333893 
	C948.000000,344.778381 948.000000,363.889191 948.000000,383.000000 
z"/>
<path fill="#FFFFFF" opacity="1.000000" stroke="none" 
	d="
M1263.000000,383.000000 
	C1232.312378,383.000000 1201.624878,383.000000 1170.470581,382.619568 
	C1174.042603,372.668915 1177.966431,363.046844 1182.235474,353.580444 
	C1182.932617,352.034760 1185.142090,350.169922 1186.671997,350.152557 
	C1206.814087,349.923767 1226.959717,349.969513 1247.103760,350.082794 
	C1248.210571,350.088989 1249.921387,351.035095 1250.319946,351.979065 
	C1254.665161,362.269318 1258.804565,372.646484 1263.000000,383.000000 
z"/>
<path fill="#FFFFFF" opacity="1.000000" stroke="none" 
	d="
M1593.000000,383.000000 
	C1562.312378,383.000000 1531.624878,383.000000 1500.470581,382.619568 
	C1504.042603,372.669006 1507.966309,363.046997 1512.235352,353.580688 
	C1512.932373,352.034943 1515.141968,350.169922 1516.671753,350.152588 
	C1536.813599,349.923767 1556.959106,349.969543 1577.102905,350.082794 
	C1578.209839,350.088989 1579.921021,351.034576 1580.319580,351.978424 
	C1584.665039,362.268860 1588.804443,372.646271 1593.000000,383.000000 
z"/>
<path fill="#FFFFFF" opacity="1.000000" stroke="none" 
	d="
M1144.000000,383.000000 
	C1123.979126,383.000000 1103.958130,383.000000 1083.468628,382.531342 
	C1083.000000,363.169464 1083.000000,344.276245 1083.000000,325.000427 
	C1091.167114,325.000427 1098.937256,324.862701 1106.694092,325.123199 
	C1108.145996,325.171967 1110.050659,326.489868 1110.879150,327.779297 
	C1114.343140,333.169464 1117.443237,338.792023 1120.738037,344.292633 
	C1128.473389,357.206299 1136.243774,370.098907 1144.000000,383.000000 
z"/>
<path fill="#000000" opacity="1.000000" stroke="none" 
	d="
M1144.416626,383.000000 
	C1136.243774,370.098907 1128.473389,357.206299 1120.738037,344.292633 
	C1117.443237,338.792023 1114.343140,333.169464 1110.879150,327.779297 
	C1110.050659,326.489868 1108.145996,325.171967 1106.694092,325.123199 
	C1098.937256,324.862701 1091.167114,325.000427 1083.000000,325.000427 
	C1083.000000,344.276245 1083.000000,363.169464 1083.000000,382.531342 
	C1081.933350,383.000000 1080.866577,383.000000 1079.399902,383.000000 
	C1079.000000,344.534454 1079.000000,306.068878 1079.000000,267.000000 
	C1090.769165,267.000000 1102.361206,266.859680 1113.948120,267.045105 
	C1122.970459,267.189514 1131.655762,268.747009 1138.803589,274.973907 
	C1142.776001,278.434601 1145.628662,282.553497 1146.384155,287.869049 
	C1147.567749,296.196655 1147.976562,304.383942 1142.744019,311.794861 
	C1137.331665,319.460327 1129.563477,322.678864 1120.689697,324.007599 
	C1118.869385,324.280182 1117.063599,324.650299 1114.777710,325.060394 
	C1126.400269,344.488739 1137.698608,363.375183 1148.998535,382.630798 
	C1147.611084,383.000000 1146.222168,383.000000 1144.416626,383.000000 
M1123.438110,319.003906 
	C1135.227295,316.484955 1143.649170,306.895233 1142.901733,295.845398 
	C1142.123901,284.344513 1136.541748,275.696655 1123.722168,272.992981 
	C1120.894287,272.396545 1118.089355,271.250458 1115.257202,271.193665 
	C1104.530640,270.978546 1093.797363,271.107086 1083.343140,271.107086 
	C1083.343140,288.109589 1083.343140,304.505341 1083.343140,321.000000 
	C1092.836548,321.000000 1101.992798,321.186615 1111.135132,320.911102 
	C1114.965332,320.795654 1118.765991,319.700317 1123.438110,319.003906 
z"/>
<path fill="#000000" opacity="1.000000" stroke="none" 
	d="
M1593.416748,383.000000 
	C1588.804443,372.646271 1584.665039,362.268860 1580.319580,351.978424 
	C1579.921021,351.034576 1578.209839,350.088989 1577.102905,350.082794 
	C1556.959106,349.969543 1536.813599,349.923767 1516.671753,350.152588 
	C1515.141968,350.169922 1512.932373,352.034943 1512.235352,353.580688 
	C1507.966309,363.046997 1504.042603,372.669006 1500.001953,382.619568 
	C1498.611084,383.000000 1497.222168,383.000000 1495.416626,383.000000 
	C1497.804565,376.039612 1500.495483,369.030823 1503.434814,362.127808 
	C1512.589722,340.626495 1521.784058,319.141510 1531.075073,297.698792 
	C1535.464233,287.569458 1540.108887,277.550903 1544.787476,267.149536 
	C1549.046143,265.538391 1551.075684,268.368256 1552.638672,272.164124 
	C1565.252197,302.796844 1577.889404,333.419769 1590.518066,364.046204 
	C1593.015015,370.101990 1595.506104,376.160156 1598.000000,382.608643 
	C1596.611084,383.000000 1595.222168,383.000000 1593.416748,383.000000 
M1523.000000,328.504456 
	C1520.599609,334.186615 1518.199219,339.868805 1515.675781,345.842346 
	C1536.741943,345.842346 1557.140625,345.842346 1578.010132,345.842346 
	C1567.788208,321.102814 1557.690552,296.664062 1547.306641,271.532288 
	C1544.676636,277.624634 1542.341064,283.039917 1540.001587,288.453613 
	C1534.346313,301.540527 1528.689453,314.626740 1523.000000,328.504456 
z"/>
<path fill="#000000" opacity="1.000000" stroke="none" 
	d="
M1263.416626,383.000000 
	C1258.804565,372.646484 1254.665161,362.269318 1250.319946,351.979065 
	C1249.921387,351.035095 1248.210571,350.088989 1247.103760,350.082794 
	C1226.959717,349.969513 1206.814087,349.923767 1186.671997,350.152557 
	C1185.142090,350.169922 1182.932617,352.034760 1182.235474,353.580444 
	C1177.966431,363.046844 1174.042603,372.668915 1170.001953,382.619568 
	C1168.611084,383.000000 1167.222168,383.000000 1165.416626,383.000000 
	C1168.721191,373.824463 1172.299561,364.587860 1176.192749,355.485870 
	C1184.754272,335.470581 1193.447266,315.511292 1202.143921,295.554077 
	C1205.664062,287.476044 1209.193237,279.395081 1213.039795,271.471527 
	C1213.923462,269.651428 1216.253540,267.196442 1217.696899,267.335114 
	C1219.372437,267.496033 1221.416260,269.926239 1222.244019,271.830627 
	C1228.240967,285.626465 1234.004883,299.524200 1239.776245,313.417236 
	C1246.220581,328.929932 1252.609741,344.465637 1258.993896,360.003204 
	C1262.030518,367.393677 1265.000000,374.811707 1268.000000,382.608612 
	C1266.611084,383.000000 1265.222168,383.000000 1263.416626,383.000000 
M1229.503784,301.002319 
	C1225.545166,291.419434 1221.586670,281.836517 1217.312134,271.488586 
	C1206.544922,296.735657 1196.153076,321.102722 1185.604980,345.836365 
	C1206.676270,345.836365 1227.111938,345.836365 1247.889893,345.836365 
	C1241.880005,331.020905 1235.922852,316.335724 1229.503784,301.002319 
z"/>
<path fill="#000000" opacity="1.000000" stroke="none" 
	d="
M948.416626,383.000000 
	C948.000000,363.889191 948.000000,344.778381 948.000000,325.333893 
	C922.730469,325.333893 897.583862,325.333893 872.000000,325.333893 
	C872.000000,344.257141 872.000000,363.159912 872.000000,382.531342 
	C870.933289,383.000000 869.866638,383.000000 868.399963,383.000000 
	C868.000000,344.550537 868.000000,306.101105 868.000000,267.270386 
	C869.317810,267.191193 870.486633,267.120911 871.881714,267.037079 
	C871.881714,285.055908 871.881714,302.673706 871.881714,320.645477 
	C897.254211,320.645477 922.426880,320.645477 947.980347,320.645477 
	C947.980347,302.873718 947.980347,285.136780 947.980347,267.203064 
	C949.759338,267.203064 951.161560,267.203064 953.000000,267.203064 
	C953.000000,305.556671 953.000000,343.809692 953.000000,382.531342 
	C951.611084,383.000000 950.222229,383.000000 948.416626,383.000000 
z"/>
<path fill="#000000" opacity="1.000000" stroke="none" 
	d="
M1378.468628,383.000000 
	C1378.000000,344.540375 1378.000000,306.080719 1378.000000,267.310669 
	C1400.562988,267.310669 1422.958008,267.310669 1445.754395,267.310669 
	C1445.813354,268.323181 1445.881348,269.492371 1445.962769,270.891235 
	C1424.601196,270.891235 1403.647827,270.891235 1382.347534,270.891235 
	C1382.347534,287.490021 1382.347534,303.890167 1382.347534,320.700012 
	C1401.802979,320.700012 1421.531006,320.700012 1441.624268,320.700012 
	C1441.759155,322.243561 1441.861572,323.414978 1441.999390,324.992920 
	C1421.909180,324.992920 1402.164185,324.992920 1382.211792,324.992920 
	C1382.211792,342.766510 1382.211792,360.163727 1382.211792,377.928650 
	C1404.097412,377.928650 1425.844849,377.928650 1448.000000,377.928650 
	C1448.000000,379.558990 1448.000000,380.829224 1448.000000,382.549744 
	C1424.979126,383.000000 1401.958130,383.000000 1378.468628,383.000000 
z"/>
<path fill="#000000" opacity="1.000000" stroke="none" 
	d="
M986.468628,383.000000 
	C986.000000,344.540436 986.000000,306.080872 986.000000,267.310791 
	C1008.229614,267.310791 1030.291382,267.310791 1052.754517,267.310791 
	C1052.813477,268.323242 1052.881348,269.492218 1052.962769,270.891479 
	C1031.934204,270.891479 1011.314209,270.891479 990.347290,270.891479 
	C990.347290,287.490448 990.347290,303.890564 990.347290,320.700317 
	C1009.803406,320.700317 1029.531250,320.700317 1049.624756,320.700317 
	C1049.759399,322.243835 1049.861572,323.415253 1049.999268,324.993103 
	C1029.908936,324.993103 1010.163940,324.993103 990.211731,324.993103 
	C990.211731,342.766693 990.211731,360.163879 990.211731,377.928711 
	C1012.097473,377.928711 1033.844849,377.928711 1056.000000,377.928711 
	C1056.000000,379.558990 1056.000000,380.829224 1056.000000,382.549744 
	C1032.979126,383.000000 1009.958191,383.000000 986.468628,383.000000 
z"/>
<path fill="#000000" opacity="1.000000" stroke="none" 
	d="
M1288.399902,383.000000 
	C1288.000000,344.536499 1288.000000,306.072998 1288.000000,267.950836 
	C1301.349731,267.950836 1314.532104,267.511078 1327.659668,268.167633 
	C1332.898682,268.429657 1338.457886,270.306610 1343.103394,272.850677 
	C1355.000122,279.365906 1356.158936,290.937317 1354.852905,302.718842 
	C1353.728882,312.858459 1343.528076,322.757965 1332.580078,324.872192 
	C1327.313721,325.889130 1321.811401,325.844635 1316.409180,325.957184 
	C1308.446167,326.123108 1300.477173,326.000000 1292.000000,326.000000 
	C1292.000000,344.870819 1292.000000,363.466766 1292.000000,382.531342 
	C1290.933350,383.000000 1289.866577,383.000000 1288.399902,383.000000 
M1350.000000,301.383881 
	C1353.469360,287.978699 1344.855835,275.343872 1333.899780,273.372955 
	C1320.291382,270.924866 1306.214233,271.081268 1292.255371,270.106903 
	C1292.255371,288.262939 1292.255371,304.991272 1292.255371,322.000000 
	C1302.635498,322.000000 1312.763306,322.055145 1322.890259,321.985748 
	C1334.953247,321.903076 1347.068115,315.364136 1350.000000,301.383881 
z"/>
<path fill="#000000" opacity="1.000000" stroke="none" 
	d="
M804.416626,383.000000 
	C804.000000,345.883362 804.000000,308.766754 804.000000,271.247528 
	C791.137756,271.247528 778.405457,271.247528 765.311890,271.247528 
	C765.207520,269.702362 765.128540,268.533081 765.036438,267.169189 
	C792.684937,267.169189 819.955383,267.169189 847.646790,267.169189 
	C847.749817,268.216888 847.865112,269.389069 848.020325,270.966858 
	C834.941895,270.966858 822.194214,270.966858 809.000000,270.966858 
	C809.000000,308.246765 809.000000,345.154724 809.000000,382.531342 
	C807.611084,383.000000 806.222229,383.000000 804.416626,383.000000 
z"/>
<path fill="#000000" opacity="1.000000" stroke="none" 
	d="
M1471.399902,383.000000 
	C1471.000000,344.574677 1471.000000,306.149323 1471.000000,267.336487 
	C1472.258057,267.233582 1473.428101,267.137909 1475.000000,267.009338 
	C1475.000000,305.597107 1475.000000,343.829895 1475.000000,382.531342 
	C1473.933350,383.000000 1472.866577,383.000000 1471.399902,383.000000 
z"/>
<path fill="#000000" opacity="1.000000" stroke="none" 
	d="
M298.722229,300.776215 
	C305.995819,289.330383 312.898590,278.080688 320.094940,267.022095 
	C321.434998,264.962860 323.697632,262.899048 325.969116,262.142883 
	C353.806305,252.876450 381.852051,244.223923 409.589966,234.675156 
	C445.482788,222.319061 481.147400,209.299896 516.908875,196.562271 
	C528.674011,192.371750 540.513000,188.369095 552.138672,183.821457 
	C554.811890,182.775772 557.319092,180.209564 558.927979,177.714584 
	C570.705566,159.450958 582.753662,141.327011 593.618896,122.524780 
	C598.888855,113.405273 607.009583,109.774719 615.645813,105.971260 
	C621.813782,103.254860 627.894836,100.340523 634.007263,97.498688 
	C659.457153,85.666191 684.904297,73.827736 710.531738,61.908043 
	C711.375488,66.521896 712.304138,70.909172 712.918945,75.340004 
	C713.131958,76.875259 712.952759,78.706177 712.286804,80.079048 
	C709.831848,85.139824 706.629883,89.879509 704.565491,95.080002 
	C700.176697,106.135826 691.805237,114.183876 684.457764,123.015656 
	C675.573792,133.694473 666.609985,144.307922 657.591187,154.873260 
	C650.886169,162.728027 644.712463,171.208878 637.096436,178.073029 
	C625.722351,188.324112 613.382385,197.520325 601.271545,206.931427 
	C592.842651,213.481384 584.576416,220.456131 575.369324,225.723618 
	C567.438843,230.260712 558.393066,232.986313 549.643188,235.925598 
	C528.974365,242.868698 508.210480,249.532806 487.427063,256.126892 
	C484.000366,257.214081 482.615936,259.337646 481.996826,262.526978 
	C477.689392,284.716278 473.207489,306.873138 469.111511,329.101196 
	C467.872009,335.827667 467.717407,342.750946 466.967682,349.573273 
	C466.796356,351.132202 466.218872,352.646484 465.828308,354.181335 
	C465.341888,354.228149 464.855469,354.274963 464.369049,354.321777 
	C459.568573,346.756989 455.444702,338.634430 449.789337,331.774414 
	C443.319366,323.926361 443.976227,314.801880 443.127106,305.967346 
	C441.931946,293.532715 441.614380,281.013733 440.901611,268.172485 
	C431.846161,267.441925 422.893951,266.870819 413.979309,265.939880 
	C409.174255,265.438049 405.564484,267.679932 401.813843,270.000488 
	C389.912170,277.364075 377.597321,284.130524 366.152466,292.142426 
	C354.057434,300.609467 342.506561,309.920105 331.217987,319.454285 
	C319.901978,329.011658 308.884857,338.976044 298.324768,349.360046 
	C288.086304,359.427826 278.599884,370.260071 268.763397,380.738007 
	C268.247711,381.287323 267.547302,381.663239 266.679901,382.307892 
	C264.276276,372.421875 267.143127,363.710785 270.438965,355.063751 
	C271.920990,351.175446 273.742004,347.388977 274.894379,343.407318 
	C279.005341,329.203094 288.817200,318.210846 295.842590,305.655121 
	C296.705811,304.112366 297.582367,302.577118 298.722229,300.776215 
z"/>
<path fill="#000000" opacity="1.000000" stroke="none" 
	d="
M360.557800,147.942810 
	C361.454193,147.460571 362.026428,147.048553 362.610748,147.030624 
	C374.687195,146.660172 386.768860,146.434616 398.841614,145.974335 
	C413.507355,145.415207 428.167053,144.691666 442.827057,143.990738 
	C455.991455,143.361313 469.151184,142.633926 482.315765,142.008545 
	C497.142151,141.304245 511.971771,140.667099 526.799805,139.997726 
	C530.847412,139.815018 535.998596,138.046356 538.623657,139.886581 
	C541.127625,141.641983 541.006592,147.151367 542.024902,151.014359 
	C544.347351,159.824677 546.660767,168.637360 549.045837,177.707718 
	C534.968506,182.494293 521.038208,187.253815 507.092590,191.968002 
	C476.440674,202.329590 445.763367,212.616257 415.129517,223.030899 
	C384.341339,233.497986 353.668610,244.314865 322.745819,254.364716 
	C318.149384,255.858521 312.412994,254.305634 307.282501,253.595184 
	C297.825470,252.285568 288.423737,250.572845 279.004578,248.994583 
	C270.985168,247.650848 262.973602,246.260025 254.156799,244.752991 
	C262.870117,236.685822 270.745056,229.311752 278.717926,222.045166 
	C283.315216,217.855103 288.147583,213.922821 292.740295,209.727982 
	C305.394867,198.169754 317.944489,186.496628 330.601837,174.941513 
	C340.429291,165.969879 350.356445,157.107498 360.557800,147.942810 
z"/>
<path fill="#000000" opacity="1.000000" stroke="none" 
	d="
M819.084351,189.000778 
	C803.868958,184.651947 791.567139,176.629852 782.554504,164.010345 
	C776.201721,155.115067 772.386230,145.246582 770.863708,134.284515 
	C769.168884,122.082031 769.495422,110.112244 773.284607,98.449615 
	C780.484619,76.289085 796.018066,62.503319 818.070984,56.099358 
	C833.568909,51.598919 849.305725,51.814865 864.892334,56.046074 
	C876.834839,59.288029 887.200378,65.236412 895.835815,74.265388 
	C904.123169,82.930542 909.664246,93.251549 911.686584,104.751648 
	C914.712952,121.961342 914.377625,139.206116 905.972168,155.327087 
	C896.171143,174.124405 880.623535,185.366669 860.142090,189.973816 
	C846.545715,193.032196 832.964600,192.985550 819.084351,189.000778 
M874.647339,103.118538 
	C873.417908,101.235809 872.143860,99.380562 870.966125,97.466011 
	C861.445618,81.988953 836.315918,78.473595 822.016968,88.323044 
	C812.829590,94.651535 807.384949,102.902649 805.613892,113.800308 
	C803.415405,127.327705 805.638733,139.978043 814.937195,150.248291 
	C830.075256,166.968597 856.023865,165.847641 870.120117,148.315216 
	C876.457092,140.433548 878.855347,130.940186 878.763306,121.185760 
	C878.708679,115.392853 876.317078,109.621986 874.647339,103.118538 
z"/>
<path fill="#000000" opacity="1.000000" stroke="none" 
	d="
M968.000000,57.000000 
	C981.793945,57.048862 995.097107,56.443787 1008.178284,59.954563 
	C1031.067261,66.097595 1049.102905,81.872650 1053.095947,106.470390 
	C1055.401489,120.672462 1055.724487,134.681030 1049.835571,147.942459 
	C1046.881348,154.595306 1042.591431,160.910004 1037.824463,166.446838 
	C1029.345215,176.295700 1018.225952,182.312088 1005.494019,185.054749 
	C999.823853,186.276215 994.067139,187.759583 988.326233,187.866745 
	C969.383850,188.220337 950.430786,188.000000 931.241699,188.000000 
	C931.241699,144.312454 931.241699,100.934166 931.241699,57.000000 
	C943.319763,57.000000 955.409912,57.000000 968.000000,57.000000 
M1019.977417,132.048615 
	C1019.984924,126.221931 1020.412964,120.358124 1019.902527,114.577187 
	C1019.116394,105.675552 1015.002380,98.446899 1007.744263,92.939011 
	C994.082031,82.571182 978.410950,85.316261 963.358398,85.086815 
	C963.358398,110.459625 963.358398,135.194580 963.358398,160.485657 
	C971.809509,159.975647 979.900452,159.752884 987.932800,158.946884 
	C1004.210632,157.313477 1015.012939,148.757126 1019.977417,132.048615 
z"/>
<path fill="#000000" opacity="1.000000" stroke="none" 
	d="
M1428.000000,140.087952 
	C1428.000000,146.879593 1428.000000,153.182846 1428.000000,159.879395 
	C1448.341553,159.879395 1468.413940,159.879395 1488.741455,159.879395 
	C1488.741455,169.343414 1488.741455,178.414764 1488.741455,187.744049 
	C1457.985229,187.744049 1427.250732,187.744049 1396.257812,187.744049 
	C1396.257812,144.323578 1396.257812,100.924179 1396.257812,57.262138 
	C1425.669189,57.262138 1455.070557,57.262138 1484.736328,57.262138 
	C1484.736328,65.999298 1484.736328,74.737541 1484.736328,83.875282 
	C1465.996338,83.875282 1447.256714,83.875282 1428.260498,83.875282 
	C1428.260498,92.006630 1428.260498,99.744118 1428.260498,107.882355 
	C1446.010620,107.882355 1463.750610,107.882355 1481.743164,107.882355 
	C1481.743164,116.680771 1481.743164,125.084869 1481.743164,133.889343 
	C1463.982422,133.889343 1446.242432,133.889343 1428.000000,133.889343 
	C1428.000000,136.051834 1428.000000,137.825699 1428.000000,140.087952 
z"/>
<path fill="#000000" opacity="1.000000" stroke="none" 
	d="
M456.621277,113.746155 
	C484.764343,105.687080 512.726318,98.412155 540.241394,89.722054 
	C550.947632,86.340691 560.663452,79.802513 570.794922,74.632553 
	C574.947144,72.513718 579.080261,70.337051 583.088501,67.961342 
	C589.108276,64.393433 595.359314,62.947208 602.515015,62.796070 
	C621.276306,62.399818 640.016846,61.008297 658.764648,59.995258 
	C670.765015,59.346817 682.767090,58.721806 694.761230,57.971527 
	C699.330505,57.685696 703.879639,57.079189 708.437988,56.618824 
	C708.620422,57.124565 708.802795,57.630306 708.985229,58.136047 
	C674.187805,74.481056 639.390320,90.826065 604.592896,107.171082 
	C604.263306,106.903328 603.933716,106.635574 603.604126,106.367821 
	C606.749146,99.370094 609.894226,92.372360 613.605835,84.113922 
	C603.495117,90.522278 594.593079,96.170525 585.685059,101.809296 
	C570.867615,111.188728 556.218933,120.856316 541.101318,129.724274 
	C537.474670,131.851654 532.304138,131.691940 527.808899,131.931519 
	C511.987366,132.774826 496.147858,133.273636 480.320740,134.020935 
	C468.316650,134.587738 456.321411,135.340668 444.321564,135.998138 
	C431.989471,136.673798 419.655762,137.320389 407.324188,138.005142 
	C395.656982,138.652954 383.989471,139.299713 372.326935,140.025269 
	C369.594696,140.195236 366.882111,140.681015 364.160461,141.021500 
	C364.094360,140.606308 364.028259,140.191116 363.962189,139.775925 
	C372.754059,137.187912 381.517853,134.499405 390.343658,132.032822 
	C408.730957,126.894035 427.149628,121.867325 445.559021,116.807625 
	C449.118164,115.829414 452.693634,114.910789 456.621277,113.746155 
z"/>
<path fill="#000000" opacity="1.000000" stroke="none" 
	d="
M1267.254761,76.245605 
	C1263.331177,80.504639 1259.598511,84.459351 1256.010986,88.541618 
	C1253.774658,91.086342 1252.302734,91.529793 1249.203125,88.940498 
	C1238.671997,80.143509 1228.055420,77.758865 1217.649048,82.801651 
	C1213.369141,84.875648 1211.442139,88.458916 1211.070557,92.829842 
	C1210.666504,97.581779 1213.836914,100.506065 1217.711670,102.130157 
	C1226.111084,105.650856 1234.726318,108.652916 1243.198486,112.005379 
	C1256.439087,117.244675 1267.748291,124.391869 1271.046509,139.748901 
	C1274.500000,155.828400 1268.795288,173.775375 1254.370361,182.793945 
	C1241.793335,190.657135 1227.989014,193.130569 1213.014893,191.237457 
	C1201.399414,189.768951 1190.679688,186.693497 1180.891724,180.380905 
	C1178.317505,178.720734 1175.888428,176.826019 1173.461060,174.950500 
	C1171.054810,173.091263 1171.932129,171.489212 1173.780884,169.676727 
	C1180.079346,163.502029 1186.256104,157.203186 1192.180176,151.252060 
	C1197.509399,154.688385 1202.514282,158.161987 1207.755615,161.232071 
	C1214.161377,164.984207 1221.122192,165.570282 1228.307495,163.889481 
	C1234.279541,162.492508 1238.026733,158.742584 1238.901855,152.753525 
	C1239.691895,147.347137 1237.102173,142.996216 1232.241943,140.888504 
	C1223.894531,137.268555 1215.283203,134.255463 1206.772461,131.014633 
	C1194.543945,126.358170 1183.785400,120.247757 1179.819092,106.397881 
	C1174.005249,86.097153 1183.365356,65.485420 1203.646118,57.920811 
	C1212.771973,54.516941 1222.117920,52.486988 1231.720703,53.120235 
	C1247.159058,54.138302 1261.413208,58.725983 1274.125244,70.429977 
	C1271.764771,72.414879 1269.635864,74.205040 1267.254761,76.245605 
z"/>
<path fill="#000000" opacity="1.000000" stroke="none" 
	d="
M1285.767944,179.273361 
	C1282.977661,176.941971 1280.444092,174.875473 1277.833862,172.746521 
	C1284.832153,165.269653 1291.600098,158.038879 1297.577637,151.652649 
	C1305.335571,155.720306 1312.430176,159.631561 1319.698975,163.186646 
	C1324.897217,165.729034 1330.486084,165.183731 1335.814331,163.619095 
	C1341.409546,161.976074 1344.615967,157.239655 1345.074951,152.330383 
	C1345.739990,145.216309 1341.498779,141.642838 1335.591187,139.128052 
	C1325.154663,134.685226 1314.029175,131.747986 1303.874512,126.784592 
	C1291.656494,120.812675 1284.855591,110.723236 1284.866577,96.364281 
	C1284.873535,87.301773 1286.439819,79.168404 1291.756592,71.598389 
	C1298.228394,62.383533 1307.707153,57.982143 1317.801636,55.260864 
	C1331.382568,51.599796 1345.263306,52.112980 1358.531006,57.118484 
	C1366.036865,59.950191 1373.582275,63.166588 1379.358154,70.015190 
	C1373.154175,76.599464 1367.038208,83.251831 1360.661011,89.643463 
	C1359.907959,90.398239 1357.012817,90.372375 1356.313599,89.608002 
	C1351.101440,83.911018 1344.296997,81.213676 1337.109619,80.222305 
	C1330.991333,79.378380 1324.725220,80.946419 1320.195190,85.648132 
	C1315.984741,90.018349 1317.199951,99.879326 1323.582764,102.183670 
	C1333.205322,105.657616 1342.804688,109.214615 1352.293945,113.034340 
	C1364.275513,117.857216 1374.417969,124.866516 1377.046509,138.589005 
	C1381.365601,161.138428 1373.414917,179.307983 1350.889160,187.816605 
	C1331.478271,195.148621 1312.088989,192.629044 1293.443970,184.005859 
	C1290.839233,182.801163 1288.491455,181.041183 1285.767944,179.273361 
z"/>
<path fill="#000000" opacity="1.000000" stroke="none" 
	d="
M273.402893,161.264587 
	C284.457947,159.707397 295.105316,158.298874 305.773529,157.071777 
	C316.074585,155.886948 326.397217,154.889160 336.710358,153.809204 
	C336.900055,154.213196 337.089752,154.617188 337.279449,155.021179 
	C305.934662,183.354630 274.589874,211.688065 243.196350,240.065567 
	C214.074509,223.033646 184.998611,206.028595 155.016174,188.493378 
	C169.691650,183.746216 183.203781,179.358826 196.727951,175.008865 
	C202.066284,173.291840 207.347458,171.275177 212.804565,170.078598 
	C220.519928,168.386841 228.353394,167.187241 236.174454,166.035812 
	C245.983292,164.591736 255.827820,163.387344 265.663330,162.129501 
	C268.097656,161.818176 270.556671,161.699722 273.402893,161.264587 
z"/>
<path fill="#000000" opacity="1.000000" stroke="none" 
	d="
M1088.265625,120.763680 
	C1074.308228,99.508240 1060.615601,78.515320 1046.630981,57.074768 
	C1060.510132,57.074768 1073.483521,57.074768 1086.472778,57.074768 
	C1095.492554,72.699188 1104.483887,88.274422 1113.639526,104.134125 
	C1122.680908,88.411224 1131.642944,72.826515 1140.620239,57.215172 
	C1152.919434,57.215172 1165.358521,57.215172 1178.902588,57.215172 
	C1175.536011,62.521732 1172.662231,67.256683 1169.589600,71.858818 
	C1156.697754,91.168106 1143.693115,110.402367 1130.901733,129.777649 
	C1129.661377,131.656433 1129.100952,134.312790 1129.080688,136.615692 
	C1128.931641,153.580338 1129.000000,170.546860 1129.000000,187.755524 
	C1117.959473,187.755524 1107.220825,187.755524 1096.000000,187.755524 
	C1096.000000,176.583984 1096.000000,165.473846 1096.000000,154.363724 
	C1096.000000,152.863770 1095.876343,151.351868 1096.019897,149.865784 
	C1097.037842,139.331360 1095.940186,129.364395 1088.265625,120.763680 
z"/>
<path fill="#000000" opacity="1.000000" stroke="none" 
	d="
M121.672653,112.254578 
	C149.922256,128.306778 177.861893,144.137650 206.569107,160.403442 
	C186.198410,167.467484 166.599838,174.068909 147.186279,181.175705 
	C143.697021,182.453049 142.207031,181.070618 140.619965,179.058533 
	C126.032738,160.565094 111.405190,142.100906 97.066017,123.415909 
	C92.625259,117.629272 92.399803,118.327942 98.512405,113.788979 
	C100.496254,112.315842 102.289360,110.488899 103.849693,108.564331 
	C106.407112,105.409935 109.244209,105.358192 112.503006,107.167992 
	C115.448448,108.803757 118.408867,110.412552 121.672653,112.254578 
z"/>
<path fill="#000000" opacity="1.000000" stroke="none" 
	d="
M561.739136,126.756226 
	C575.630981,115.857323 589.262085,105.214539 603.155884,94.366684 
	C603.900818,99.095276 561.623840,165.686020 556.988892,167.733139 
	C554.006104,158.301086 550.966187,148.907486 548.152161,139.446686 
	C547.875488,138.516464 548.662170,136.777023 549.506226,136.090775 
	C553.389954,132.933044 557.469238,130.015839 561.739136,126.756226 
z"/>
<path fill="#FFFFFF" opacity="1.000000" stroke="none" 
	d="
M1123.009033,319.027191 
	C1118.765991,319.700317 1114.965332,320.795654 1111.135132,320.911102 
	C1101.992798,321.186615 1092.836548,321.000000 1083.343140,321.000000 
	C1083.343140,304.505341 1083.343140,288.109589 1083.343140,271.107086 
	C1093.797363,271.107086 1104.530640,270.978546 1115.257202,271.193665 
	C1118.089355,271.250458 1120.894287,272.396545 1123.722168,272.992981 
	C1136.541748,275.696655 1142.123901,284.344513 1142.901733,295.845398 
	C1143.649170,306.895233 1135.227295,316.484955 1123.009033,319.027191 
z"/>
<path fill="#FFFFFF" opacity="1.000000" stroke="none" 
	d="
M1523.016602,328.108856 
	C1528.689453,314.626740 1534.346313,301.540527 1540.001587,288.453613 
	C1542.341064,283.039917 1544.676636,277.624634 1547.306641,271.532288 
	C1557.690552,296.664062 1567.788208,321.102814 1578.010132,345.842346 
	C1557.140625,345.842346 1536.741943,345.842346 1515.675781,345.842346 
	C1518.199219,339.868805 1520.599609,334.186615 1523.016602,328.108856 
z"/>
<path fill="#FFFFFF" opacity="1.000000" stroke="none" 
	d="
M1229.734863,301.326416 
	C1235.922852,316.335724 1241.880005,331.020905 1247.889893,345.836365 
	C1227.111938,345.836365 1206.676270,345.836365 1185.604980,345.836365 
	C1196.153076,321.102722 1206.544922,296.735657 1217.312134,271.488586 
	C1221.586670,281.836517 1225.545166,291.419434 1229.734863,301.326416 
z"/>
<path fill="#FFFFFF" opacity="1.000000" stroke="none" 
	d="
M1349.999268,301.810181 
	C1347.068115,315.364136 1334.953247,321.903076 1322.890259,321.985748 
	C1312.763306,322.055145 1302.635498,322.000000 1292.255371,322.000000 
	C1292.255371,304.991272 1292.255371,288.262939 1292.255371,270.106903 
	C1306.214233,271.081268 1320.291382,270.924866 1333.899780,273.372955 
	C1344.855835,275.343872 1353.469360,287.978699 1349.999268,301.810181 
z"/>
<path fill="#FFFFFF" opacity="1.000000" stroke="none" 
	d="
M874.811768,103.479874 
	C876.317078,109.621986 878.708679,115.392853 878.763306,121.185760 
	C878.855347,130.940186 876.457092,140.433548 870.120117,148.315216 
	C856.023865,165.847641 830.075256,166.968597 814.937195,150.248291 
	C805.638733,139.978043 803.415405,127.327705 805.613892,113.800308 
	C807.384949,102.902649 812.829590,94.651535 822.016968,88.323044 
	C836.315918,78.473595 861.445618,81.988953 870.966125,97.466011 
	C872.143860,99.380562 873.417908,101.235809 874.811768,103.479874 
z"/>
<path fill="#FFFFFF" opacity="1.000000" stroke="none" 
	d="
M1019.823730,132.452820 
	C1015.012939,148.757126 1004.210632,157.313477 987.932800,158.946884 
	C979.900452,159.752884 971.809509,159.975647 963.358398,160.485657 
	C963.358398,135.194580 963.358398,110.459625 963.358398,85.086815 
	C978.410950,85.316261 994.082031,82.571182 1007.744263,92.939011 
	C1015.002380,98.446899 1019.116394,105.675552 1019.902527,114.577187 
	C1020.412964,120.358124 1019.984924,126.221931 1019.823730,132.452820 
z"/>
</svg>